# xmcd CD database file
#
# Track frame offsets:
#	150
#	17207
#	37545
#	52632
#	72022
#	91382
#	114797
#	134450
#	146770
#	167167
#	182585
#	202852
#
# Disc length: 2936 seconds
#
# Revision: 3
# Processed by: cddbd v1.5.1PL0 Copyright (c) Steve Scherf et al.
# Submitted via: CDex 1.50beta9
#
DISCID=900b760c
DTITLE=Fausto Leali - Non ami che te
DYEAR=1900
DGENRE=Pop
TTITLE0=Non ami che te
TTITLE1=nella vita
TTITLE2=Rolling
TTITLE3=amo l'amore
TTITLE4=Il Blues del mio cuore
TTITLE5=Io sono lì
TTITLE6=non voglio perderti
TTITLE7=e non c'è niente da ridere
TTITLE8=voglio un'anima
TTITLE9=cani randagi
TTITLE10=non ami che te
TTITLE11=se c'è l'amore
EXTD=
EXTT0=
EXTT1=
EXTT2=
EXTT3=
EXTT4=
EXTT5=
EXTT6=
EXTT7=
EXTT8=
EXTT9=
EXTT10=
EXTT11=
PLAYORDER=
